<?xml version="1.0" encoding="utf-8"?>
<!DOCTYPE svg PUBLIC "-//W3C//DTD SVG 1.1//EN" "http://www.w3.org/Graphics/SVG/1.1/DTD/svg11.dtd">
<!-- exported from Silhouette Studio® Business Edition V4.4.464ssbe -->
<svg version="1.1" xmlns="http://www.w3.org/2000/svg" xmlns:xlink="http://www.w3.org/1999/xlink" width="82.023mm" height="33.831mm" viewBox="0 0 82.023 33.831">
<defs>
<path id="path_de20888387d7bf8ad70463e556d1ae59" d="M 21.80927 9.823441 C 21.82906 13.45268 20.83421 16.36639 18.82471 18.56453 C 16.81521 20.76268 14.11415 21.87256 10.72152 21.89418 C 7.328897 21.91581 4.615919 20.84044 2.582585 18.66806 C 0.5492511 16.49568 -0.477311 13.59487 -0.4971046 9.965622 L -0.5357866 2.873117 L 21.77058 2.730932 L 21.80927 9.823441 Z M 1.927696 5.886282 L 1.94986 9.950026 C 1.964496 12.63364 2.797696 14.76254 4.449463 16.33669 C 6.10123 17.91084 8.191948 18.68985 10.72161 18.67373 C 13.25137 18.6576 15.32162 17.84568 16.93236 16.23796 C 18.54309 14.63024 19.34122 12.49734 19.32672 9.839264 L 19.30456 5.77552 L 1.927696 5.886282 Z" fill-rule="evenodd" fill="#3DCFB6" fill-opacity="1" stroke="#3DCFB6" stroke-opacity="1" stroke-width="0.2645833" stroke-linecap="round" stroke-linejoin="round"/>
<path id="path_58d3502b36b6a39068d1d72209c6548f" d="M -0.234355 23.37799 C -0.2412864 19.74872 0.7638841 16.83918 2.781154 14.64939 C 4.798421 12.4596 7.50339 11.36091 10.89606 11.35334 C 14.28873 11.34576 16.99787 12.43237 19.02349 14.61313 C 21.0491 16.7939 22.06538 19.69892 22.07231 23.3282 L 22.08586 30.42076 L -0.220809 30.47056 L -0.234355 23.37799 Z M 19.63307 27.39744 L 19.62531 23.33366 C 19.62019 20.65002 18.79454 18.51771 17.14837 16.93673 C 15.50219 15.35576 13.41426 14.56811 10.88456 14.57375 C 8.354767 14.5794 6.281661 15.38273 4.665241 16.98375 C 3.04882 18.58479 2.243147 20.71436 2.248223 23.37245 L 2.255982 27.43623 L 19.63307 27.39744 Z" fill-rule="evenodd" fill="#3DCFB6" fill-opacity="1" stroke="#3DCFB6" stroke-opacity="1" stroke-width="0.2645833" stroke-linecap="round" stroke-linejoin="round"/>
</defs>
<g>
<g>
<use xlink:href="#path_de20888387d7bf8ad70463e556d1ae59"/>
</g>
</g>
<g>
<g>
<use xlink:href="#path_58d3502b36b6a39068d1d72209c6548f"/>
</g>
</g>
</svg>