<svg width="60" height="60" viewBox="0 0 60 60" fill="none" xmlns="http://www.w3.org/2000/svg">
  <g fill="white">
    <rect x="5" y="24" width="9" height="9" rx="1"/><rect x="16" y="24" width="9" height="9" rx="1"/><rect x="27" y="24" width="9" height="9" rx="1"/><rect x="38" y="24" width="9" height="9" rx="1"/>
    <rect x="16" y="13" width="9" height="9" rx="1"/><rect x="27" y="13" width="9" height="9" rx="1"/><rect x="27" y="2" width="9" height="9" rx="1"/>
  </g>
  <path d="M2 36H51C49.5 49.5 39.5 57 25 57C12.5 57 4.5 49.5 2 36Z" fill="white"/>
  <path d="M45 31C49 25.5 55 25 59 28C56 32.5 52 35 46 35" stroke="white" stroke-width="4" stroke-linecap="round" stroke-linejoin="round"/>
  <circle cx="13" cy="42" r="2" fill="#1c1c1c"/>
</svg>
