<svg width="60" height="60" viewBox="0 0 60 60" fill="none" xmlns="http://www.w3.org/2000/svg">
  <path d="M29.4 4C18.8 4 15 8.2 15 15.2V21H29.8V23H10.2C4.8 23 2 27 2 32.2C2 37.4 4.9 41 10 41H15V34.4C15 28.6 19.8 24 25.6 24H40C44.5 24 48 20.3 48 15.8V13C48 7.8 43.6 4 38.4 4H29.4ZM23.2 10C25 10 26.4 11.4 26.4 13.2C26.4 15 25 16.4 23.2 16.4C21.4 16.4 20 15 20 13.2C20 11.4 21.4 10 23.2 10Z" fill="white"/>
  <path d="M30.6 56C41.2 56 45 51.8 45 44.8V39H30.2V37H49.8C55.2 37 58 33 58 27.8C58 22.6 55.1 19 50 19H45V25.6C45 31.4 40.2 36 34.4 36H20C15.5 36 12 39.7 12 44.2V47C12 52.2 16.4 56 21.6 56H30.6ZM36.8 50C35 50 33.6 48.6 33.6 46.8C33.6 45 35 43.6 36.8 43.6C38.6 43.6 40 45 40 46.8C40 48.6 38.6 50 36.8 50Z" fill="white" opacity=".82"/>
</svg>
