<?xml version="1.0" encoding="utf-8"?>
<!DOCTYPE svg PUBLIC "-//W3C//DTD SVG 1.1//EN" "http://www.w3.org/Graphics/SVG/1.1/DTD/svg11.dtd">
<!-- exported from Silhouette Studio® Business Edition V4.4.464ssbe -->
<svg version="1.1" xmlns="http://www.w3.org/2000/svg" xmlns:xlink="http://www.w3.org/1999/xlink" width="82.023mm" height="33.831mm" viewBox="0 0 82.023 33.831">
<defs>
<path id="path_926d3e5db73d12509c159e74effa16bd" d="M 34.89653 10.60409 C 35.67105 10.60409 36.29149 10.83727 36.75785 11.30363 C 37.22421 11.76999 37.45739 12.39453 37.45739 13.17724 C 37.45739 13.95995 37.22421 14.58449 36.75785 15.05085 C 36.29149 15.51721 35.67105 15.75039 34.89653 15.75039 L 33.3829 15.75039 L 33.3829 10.60409 L 34.89653 10.60409 Z M 34.02928 15.18585 L 34.89653 15.18585 C 35.46925 15.18585 35.92469 14.99631 36.26287 14.61722 C 36.60105 14.23814 36.77013 13.75679 36.77013 13.17317 C 36.77013 12.58953 36.59969 12.1109 36.25878 11.73727 C 35.91788 11.36365 35.46379 11.17684 34.89653 11.17684 L 34.02928 11.17684 L 34.02928 15.18585 Z" fill-rule="evenodd" fill="none" fill-opacity="1" stroke="#6FC9C0" stroke-opacity="1" stroke-width="0.2645833" stroke-linecap="round" stroke-linejoin="round"/>
<path id="path_ef37235ea3998d16e4ff33747c576f29" d="M 38.79009 10.60409 L 41.95641 10.60409 L 41.95641 11.16045 L 39.43646 11.16045 L 39.43646 12.88681 L 41.80916 12.88681 L 41.80916 13.43496 L 39.43646 13.43496 L 39.43646 15.18585 L 41.95641 15.18585 L 41.95641 15.75039 L 38.79009 15.75039 L 38.79009 10.60409 Z" fill-rule="evenodd" fill="none" fill-opacity="1" stroke="#6FC9C0" stroke-opacity="1" stroke-width="0.2645833" stroke-linecap="round" stroke-linejoin="round"/>
<path id="path_e05029325499052d2434c26007d3b000" d="M 44.1492 10.60409 L 46.7019 14.73586 L 46.7019 10.60409 L 47.34824 10.60409 L 47.34824 15.75039 L 46.62824 15.75039 L 44.03466 11.56135 L 44.03466 15.75039 L 43.38011 15.75039 L 43.38011 10.60409 L 44.1492 10.60409 Z" fill-rule="evenodd" fill="none" fill-opacity="1" stroke="#6FC9C0" stroke-opacity="1" stroke-width="0.2645833" stroke-linecap="round" stroke-linejoin="round"/>
<path id="path_66135dcc0a7fee2bc786b4c42dcf5e6f" d="M 49.75414 10.60409 L 52.30683 14.73586 L 52.30683 10.60409 L 52.95317 10.60409 L 52.95317 15.75039 L 52.23318 15.75039 L 49.6396 11.56135 L 49.6396 15.75039 L 48.98505 15.75039 L 48.98505 10.60409 L 49.75414 10.60409 Z" fill-rule="evenodd" fill="none" fill-opacity="1" stroke="#6FC9C0" stroke-opacity="1" stroke-width="0.2645833" stroke-linecap="round" stroke-linejoin="round"/>
<path id="path_3710f27445f5ec868b4969d46dc7bbd0" d="M 54.60637 10.60409 L 55.25272 10.60409 L 55.25272 15.75039 L 54.60637 15.75039 L 54.60637 10.60409 Z" fill-rule="evenodd" fill="none" fill-opacity="1" stroke="#6FC9C0" stroke-opacity="1" stroke-width="0.2645833" stroke-linecap="round" stroke-linejoin="round"/>
<path id="path_46cf29ee0faf3557c1a868c03d9c3ea9" d="M 59.63835 11.85589 C 59.54561 11.35408 59.17743 11.10318 58.5338 11.10318 C 58.19017 11.10318 57.92563 11.17818 57.74018 11.32818 C 57.55473 11.47818 57.462 11.65817 57.462 11.86817 C 57.462 12.07817 57.51927 12.23771 57.63383 12.3468 C 57.74838 12.45589 57.93383 12.55135 58.19017 12.63316 L 59.26198 13.00135 C 59.62743 13.1268 59.91788 13.29861 60.13333 13.51678 C 60.34878 13.73495 60.4565 14.04177 60.4565 14.43722 C 60.4565 14.83267 60.28741 15.16539 59.94924 15.43539 C 59.61106 15.7054 59.15834 15.8404 58.59107 15.8404 C 58.02381 15.8404 57.55882 15.69722 57.1961 15.41085 C 56.83338 15.12448 56.64656 14.72222 56.63566 14.20406 L 57.26565 14.20406 C 57.26565 14.54223 57.38428 14.80132 57.62156 14.98131 C 57.85883 15.1613 58.16428 15.2513 58.53791 15.2513 C 58.91153 15.2513 59.20743 15.16812 59.42561 15.00175 C 59.6438 14.83539 59.75289 14.63903 59.75289 14.41267 C 59.75289 14.18631 59.68607 14.00768 59.55244 13.87678 C 59.41881 13.74588 59.22108 13.63679 58.95927 13.54951 L 58.0511 13.21405 C 57.62566 13.07225 57.30384 12.90317 57.08566 12.7068 C 56.86747 12.51043 56.75838 12.22271 56.75838 11.84362 C 56.75838 11.46454 56.91111 11.14818 57.21656 10.89456 C 57.522 10.64093 57.95018 10.51411 58.50108 10.51411 C 59.05198 10.51411 59.47333 10.63548 59.76515 10.8782 C 60.05697 11.12093 60.2247 11.44682 60.26833 11.85589 L 59.63835 11.85589 Z" fill-rule="evenodd" fill="none" fill-opacity="1" stroke="#6FC9C0" stroke-opacity="1" stroke-width="0.2645833" stroke-linecap="round" stroke-linejoin="round"/>
<path id="path_2a5a6fa725a6d56be6f65f0b199ea628" d="M 39.69284 17.95046 C 40.46737 17.95046 41.08781 18.18365 41.55417 18.65001 C 42.02053 19.11636 42.25371 19.7409 42.25371 20.52361 C 42.25371 21.30632 42.02053 21.93085 41.55417 22.39721 C 41.08781 22.86357 40.46737 23.09675 39.69284 23.09675 L 38.17922 23.09675 L 38.17922 17.95046 L 39.69284 17.95046 Z M 38.82559 22.53222 L 39.69284 22.53222 C 40.26556 22.53222 40.721 22.34267 41.05918 21.96359 C 41.39736 21.58451 41.56645 21.10316 41.56645 20.51954 C 41.56645 19.9359 41.396 19.45727 41.05509 19.08364 C 40.71419 18.71002 40.26011 18.52321 39.69284 18.52321 L 38.8256 18.52321 L 38.82559 22.53222 Z" fill-rule="evenodd" fill="none" fill-opacity="1" stroke="#6FC9C0" stroke-opacity="1" stroke-width="0.2645833" stroke-linecap="round" stroke-linejoin="round"/>
<path id="path_9e8373e5235dfc1228d4a4ddbd3b44d1" d="M 44.12641 17.95046 L 44.12641 21.2395 C 44.12641 21.7195 44.24641 22.06586 44.48641 22.27858 C 44.72641 22.4913 45.04276 22.59767 45.43548 22.59767 C 45.82819 22.59767 46.14455 22.4913 46.38455 22.27858 C 46.62455 22.06586 46.74455 21.7195 46.74455 21.2395 L 46.74455 17.95046 L 47.39089 17.95046 L 47.39089 21.2395 C 47.39089 21.88313 47.21362 22.36858 46.85909 22.69585 C 46.50456 23.02313 46.02866 23.18677 45.43139 23.18677 C 44.83412 23.18677 44.35959 23.02313 44.00778 22.69585 C 43.65598 22.36858 43.48007 21.88313 43.48007 21.2395 L 43.48007 17.95046 L 44.12641 17.95046 Z" fill-rule="evenodd" fill="none" fill-opacity="1" stroke="#6FC9C0" stroke-opacity="1" stroke-width="0.2645833" stroke-linecap="round" stroke-linejoin="round"/>
<path id="path_a636c7e1a11a2d10bef98ac2ffdcedf0" d="M 49.87039 17.95046 L 51.6049 21.43588 L 53.32307 17.95046 L 54.23124 17.95046 L 54.23124 23.09675 L 53.58487 23.09675 L 53.58487 18.86684 L 51.81763 22.45041 L 51.38399 22.45041 L 49.59221 18.80957 L 49.59221 23.09675 L 48.94587 23.09675 L 48.94587 17.95046 L 49.87039 17.95046 Z" fill-rule="evenodd" fill="none" fill-opacity="1" stroke="#6FC9C0" stroke-opacity="1" stroke-width="0.2645833" stroke-linecap="round" stroke-linejoin="round"/>
<path id="path_e8666d378a193231d3937ba96959823c" d="M 55.88312 17.95046 L 56.52946 17.95046 L 56.52946 23.09675 L 55.88312 23.09675 L 55.88312 17.95046 Z" fill-rule="evenodd" fill="none" fill-opacity="1" stroke="#6FC9C0" stroke-opacity="1" stroke-width="0.2645833" stroke-linecap="round" stroke-linejoin="round"/>
<path id="path_0f2a5360e9d8ed8970661e854ad36cce" d="M 58.92694 17.95046 L 61.47963 22.08222 L 61.47963 17.95046 L 62.12597 17.95046 L 62.12597 23.09675 L 61.40598 23.09675 L 58.8124 18.90773 L 58.8124 23.09675 L 58.15785 23.09675 L 58.15785 17.95046 L 58.92694 17.95046 Z" fill-rule="evenodd" fill="none" fill-opacity="1" stroke="#6FC9C0" stroke-opacity="1" stroke-width="0.2645833" stroke-linecap="round" stroke-linejoin="round"/>
<path id="path_1e8bd034e0e2b0bf7511a3ee3041bdea" d="M 31.38987 14.44914 C 31.40085 16.31059 30.84923 17.80504 29.73501 18.93248 C 28.6208 20.05991 27.12312 20.62917 25.242 20.64027 C 23.36087 20.65136 21.85659 20.09979 20.72916 18.98557 C 19.60173 17.87136 19.03252 16.38352 19.02155 14.52207 L 19.0001 10.8843 L 31.36842 10.81137 L 31.38987 14.44914 Z M 20.36604 12.42976 L 20.37833 14.51407 C 20.38644 15.8905 20.84843 16.98242 21.7643 17.78981 C 22.68016 18.59719 23.83941 18.99676 25.24205 18.98849 C 26.64474 18.98021 27.79264 18.56377 28.68575 17.73917 C 29.57886 16.91456 30.0214 15.82059 30.01336 14.45726 L 30.00108 12.37295 L 20.36604 12.42976 Z" fill-rule="evenodd" fill="none" fill-opacity="1" stroke="#6FC9C0" stroke-opacity="1" stroke-width="0.2645833" stroke-linecap="round" stroke-linejoin="round"/>
<path id="path_121fead06befa98d1caed49368f2cc96" d="M 19.17283 21.33693 C 19.1579 19.47551 19.70635 17.9799 20.81817 16.8501 C 21.92999 15.72031 23.42644 15.14787 25.30754 15.13279 C 27.18863 15.1177 28.69408 15.66607 29.82387 16.77789 C 30.95366 17.8897 31.52602 19.37633 31.54095 21.23775 L 31.57012 24.87545 L 19.202 24.97463 L 19.17283 21.33693 Z M 30.2009 23.3329 L 30.18419 21.24862 C 30.17315 19.87221 29.70885 18.78128 28.79128 17.97584 C 27.8737 17.1704 26.71361 16.77331 25.31099 16.78456 C 23.90833 16.79581 22.76132 17.21468 21.86996 18.04118 C 20.9786 18.86767 20.53838 19.96257 20.54932 21.32589 L 20.56603 23.41016 L 30.2009 23.3329 Z" fill-rule="evenodd" fill="none" fill-opacity="1" stroke="#6FC9C0" stroke-opacity="1" stroke-width="0.2645833" stroke-linecap="round" stroke-linejoin="round"/>
</defs>
<g>
<g>
<use xlink:href="#path_926d3e5db73d12509c159e74effa16bd"/>
</g>
<g>
<use xlink:href="#path_ef37235ea3998d16e4ff33747c576f29"/>
</g>
<g>
<use xlink:href="#path_e05029325499052d2434c26007d3b000"/>
</g>
<g>
<use xlink:href="#path_66135dcc0a7fee2bc786b4c42dcf5e6f"/>
</g>
<g>
<use xlink:href="#path_3710f27445f5ec868b4969d46dc7bbd0"/>
</g>
<g>
<use xlink:href="#path_46cf29ee0faf3557c1a868c03d9c3ea9"/>
</g>
</g>
<g>
<g>
<use xlink:href="#path_2a5a6fa725a6d56be6f65f0b199ea628"/>
</g>
<g>
<use xlink:href="#path_9e8373e5235dfc1228d4a4ddbd3b44d1"/>
</g>
<g>
<use xlink:href="#path_a636c7e1a11a2d10bef98ac2ffdcedf0"/>
</g>
<g>
<use xlink:href="#path_e8666d378a193231d3937ba96959823c"/>
</g>
<g>
<use xlink:href="#path_0f2a5360e9d8ed8970661e854ad36cce"/>
</g>
</g>
<g>
<g>
<use xlink:href="#path_1e8bd034e0e2b0bf7511a3ee3041bdea"/>
</g>
</g>
<g>
<g>
<use xlink:href="#path_121fead06befa98d1caed49368f2cc96"/>
</g>
</g>
</svg>