<?xml version="1.0" encoding="utf-8"?>
<!DOCTYPE svg PUBLIC "-//W3C//DTD SVG 1.1//EN" "http://www.w3.org/Graphics/SVG/1.1/DTD/svg11.dtd">
<!-- exported from Silhouette Studio® Business Edition V4.4.464ssbe -->
<svg version="1.1" xmlns="http://www.w3.org/2000/svg" xmlns:xlink="http://www.w3.org/1999/xlink" width="313mm" height="153mm" viewBox="0 0 313 153">
<defs>
<path id="path_dd170d516095446465c8062c114bd320" d="M 80.68343 12.52182 C 84.21475 12.52182 87.04355 13.68101 89.16985 15.9994 C 91.29613 18.31779 92.35928 21.42251 92.35928 25.31356 C 92.35928 29.2046 91.29613 32.30931 89.16985 34.62771 C 87.04355 36.94608 84.21475 38.1053 80.68343 38.1053 L 73.78229 38.1053 L 73.78229 12.52182 L 80.68343 12.52182 Z M 76.72932 35.29884 L 80.68343 35.29884 C 83.29464 35.29884 85.37118 34.35657 86.91303 32.47205 C 88.4549 30.58754 89.22583 28.19462 89.22583 25.29331 C 89.22583 22.3919 88.44868 20.01251 86.89439 18.15514 C 85.3401 16.29777 83.26977 15.36908 80.68343 15.36908 L 76.72932 15.36908 L 76.72932 35.29884 Z" fill-rule="evenodd" fill="#FFFFFF" fill-opacity="1" stroke="#FFFFFF" stroke-opacity="1" stroke-width="0.2645833" stroke-linecap="round" stroke-linejoin="round"/>
<path id="path_02d1f19362d85801d589b90c254731b5" d="M 98.43549 12.52182 L 112.8719 12.52182 L 112.8719 15.28763 L 101.3825 15.28763 L 101.3825 23.86976 L 112.2005 23.86976 L 112.2005 26.59475 L 101.3825 26.59475 L 101.3825 35.29884 L 112.8719 35.29884 L 112.8719 38.1053 L 98.43549 38.1053 L 98.43549 12.52182 Z" fill-rule="evenodd" fill="#FFFFFF" fill-opacity="1" stroke="#FFFFFF" stroke-opacity="1" stroke-width="0.2645833" stroke-linecap="round" stroke-linejoin="round"/>
<path id="path_c2aceb5cfd39174585f1873a073cc775" d="M 122.8696 12.52182 L 134.5082 33.0618 L 134.5082 12.52182 L 137.4551 12.52182 L 137.4551 38.1053 L 134.1723 38.1053 L 122.3473 17.2806 L 122.3473 38.1053 L 119.363 38.1053 L 119.363 12.52182 L 122.8696 12.52182 Z" fill-rule="evenodd" fill="#FFFFFF" fill-opacity="1" stroke="#FFFFFF" stroke-opacity="1" stroke-width="0.2645833" stroke-linecap="round" stroke-linejoin="round"/>
<path id="path_7545929e828b2dd9831a5afc2c00df79" d="M 148.4245 12.52182 L 160.063 33.0618 L 160.063 12.52182 L 163.0099 12.52182 L 163.0099 38.1053 L 159.7272 38.1053 L 147.9022 17.2806 L 147.9022 38.1053 L 144.9179 38.1053 L 144.9179 12.52182 L 148.4245 12.52182 Z" fill-rule="evenodd" fill="#FFFFFF" fill-opacity="1" stroke="#FFFFFF" stroke-opacity="1" stroke-width="0.2645833" stroke-linecap="round" stroke-linejoin="round"/>
<path id="path_b5113f2bb3c3b0380fc02b46082f0128" d="M 170.5474 12.52182 L 173.4944 12.52182 L 173.4944 38.1053 L 170.5474 38.1053 L 170.5474 12.52182 Z" fill-rule="evenodd" fill="#FFFFFF" fill-opacity="1" stroke="#FFFFFF" stroke-opacity="1" stroke-width="0.2645833" stroke-linecap="round" stroke-linejoin="round"/>
<path id="path_c377ae7d38e2ccd0b514ea3d49673d73" d="M 193.4899 18.74481 C 193.0671 16.25021 191.3884 15.00292 188.4539 15.00292 C 186.8872 15.00292 185.6811 15.37575 184.8355 16.12143 C 183.99 16.86711 183.5672 17.76192 183.5672 18.80586 C 183.5672 19.8498 183.8283 20.64293 184.3506 21.18525 C 184.8729 21.72757 185.7184 22.20209 186.8872 22.6088 L 191.7739 24.43917 C 193.4401 25.0628 194.7644 25.9169 195.7467 27.0015 C 196.729 28.08608 197.2202 29.61132 197.2202 31.57718 C 197.2202 33.54307 196.4492 35.19713 194.9073 36.53939 C 193.3655 37.88162 191.3014 38.55276 188.715 38.55276 C 186.1287 38.55276 184.0086 37.84095 182.3548 36.41735 C 180.701 34.99374 179.8493 32.99399 179.7997 30.41811 L 182.672 30.41811 C 182.672 32.09926 183.2129 33.38725 184.2947 34.28202 C 185.3765 35.17682 186.7692 35.62419 188.4727 35.62419 C 190.1761 35.62419 191.5252 35.21069 192.52 34.38366 C 193.5148 33.55663 194.0121 32.58046 194.0121 31.45517 C 194.0121 30.32987 193.7075 29.44186 193.0982 28.79114 C 192.4889 28.14041 191.5875 27.59809 190.3938 27.16417 L 186.2531 25.49656 C 184.3134 24.79163 182.8461 23.95108 181.8513 22.97489 C 180.8566 21.9987 180.3592 20.56835 180.3592 18.68383 C 180.3592 16.79931 181.0555 15.22662 182.4482 13.96578 C 183.8408 12.70493 185.7929 12.0745 188.3047 12.0745 C 190.8165 12.0745 192.7376 12.67783 194.0681 13.88447 C 195.3985 15.09112 196.1633 16.71123 196.3622 18.74481 L 193.4899 18.74481 Z" fill-rule="evenodd" fill="#FFFFFF" fill-opacity="1" stroke="#FFFFFF" stroke-opacity="1" stroke-width="0.2645833" stroke-linecap="round" stroke-linejoin="round"/>
<path id="path_3941eb86b6a27d52b7914ec13a498374" d="M 107.2038 48.10327 C 110.728 48.10327 113.5511 49.27303 115.6731 51.61257 C 117.7952 53.95211 118.8562 57.08517 118.8562 61.01173 C 118.8562 64.93829 117.7952 68.07133 115.6731 70.41087 C 113.5511 72.75042 110.728 73.9202 107.2038 73.9202 L 100.3165 73.9202 L 100.3165 48.10327 L 107.2038 48.10327 Z M 103.2576 71.08813 L 107.2038 71.08813 C 109.8097 71.08813 111.8821 70.13727 113.4209 68.23553 C 114.9596 66.33383 115.729 63.91907 115.729 60.9913 C 115.729 58.06339 114.9535 55.66229 113.4023 53.78799 C 111.8511 51.91366 109.7849 50.97651 107.2038 50.97651 L 103.2576 50.97651 L 103.2576 71.08813 Z" fill-rule="evenodd" fill="#FFFFFF" fill-opacity="1" stroke="#FFFFFF" stroke-opacity="1" stroke-width="0.2645833" stroke-linecap="round" stroke-linejoin="round"/>
<path id="path_66919f7e548782776dfdfab29cd09aaf" d="M 127.3773 48.10327 L 127.3773 64.60307 C 127.3773 67.01106 127.9233 68.7486 129.0154 69.81575 C 130.1074 70.88289 131.5469 71.41646 133.3338 71.41646 C 135.1207 71.41646 136.5602 70.88289 137.6522 69.81575 C 138.7443 68.7486 139.2903 67.01106 139.2903 64.60307 L 139.2903 48.10327 L 142.2313 48.10327 L 142.2313 64.60307 C 142.2313 67.83189 141.4247 70.26721 139.8115 71.90901 C 138.1983 73.55084 136.0329 74.37175 133.3152 74.37175 C 130.5976 74.37175 128.4383 73.55084 126.8375 71.90901 C 125.2367 70.26721 124.4364 67.83189 124.4364 64.60307 L 124.4364 48.10327 L 127.3773 48.10327 Z" fill-rule="evenodd" fill="#FFFFFF" fill-opacity="1" stroke="#FFFFFF" stroke-opacity="1" stroke-width="0.2645833" stroke-linecap="round" stroke-linejoin="round"/>
<path id="path_e76e1eebdace3159b529b5346a8d9ad2" d="M 153.5135 48.10327 L 161.4058 65.58824 L 169.2238 48.10327 L 173.3562 48.10327 L 173.3561 73.9202 L 170.415 73.9202 L 170.415 52.70036 L 162.3737 70.67775 L 160.4006 70.67775 L 152.2477 52.41304 L 152.2477 73.9202 L 149.3067 73.9202 L 149.3067 48.10327 L 153.5135 48.10327 Z" fill-rule="evenodd" fill="#FFFFFF" fill-opacity="1" stroke="#FFFFFF" stroke-opacity="1" stroke-width="0.2645833" stroke-linecap="round" stroke-linejoin="round"/>
<path id="path_10cf6c480209443d7ad5fe401ddc157a" d="M 180.8726 48.10328 L 183.8136 48.10328 L 183.8136 73.92018 L 180.8726 73.92018 L 180.8726 48.10328 Z" fill-rule="evenodd" fill="#FFFFFF" fill-opacity="1" stroke="#FFFFFF" stroke-opacity="1" stroke-width="0.2645833" stroke-linecap="round" stroke-linejoin="round"/>
<path id="path_d88661e95d3f211982e893092ff02cc8" d="M 194.7225 48.10328 L 206.3377 68.83069 L 206.3377 48.10328 L 209.2787 48.10328 L 209.2787 73.9202 L 206.0025 73.9202 L 194.2013 52.90548 L 194.2013 73.9202 L 191.2229 73.9202 L 191.2229 48.10328 L 194.7225 48.10328 Z" fill-rule="evenodd" fill="#FFFFFF" fill-opacity="1" stroke="#FFFFFF" stroke-opacity="1" stroke-width="0.2645833" stroke-linecap="round" stroke-linejoin="round"/>
<path id="path_8d8367b9382ebfe2228a69f4e7ea8871" d="M 64.24706 28.95113 C 64.29147 37.09739 62.05841 43.63756 57.54785 48.57155 C 53.03728 53.50555 46.97444 55.99681 39.35928 56.04534 C 31.74413 56.09389 25.65453 53.6801 21.09047 48.80393 C 16.52641 43.92777 14.22217 37.41655 14.17774 29.27028 L 14.09091 13.3503 L 64.16021 13.03115 L 64.24706 28.95113 Z M 19.62049 20.11371 L 19.67024 29.23527 C 19.7031 35.25896 21.57331 40.03753 25.2809 43.5709 C 28.98849 47.10426 33.68135 48.85284 39.35948 48.81665 C 45.03783 48.78045 49.68475 46.958 53.30025 43.34928 C 56.91572 39.74056 58.70721 34.95302 58.67467 28.98665 L 58.62492 19.86509 L 19.62049 20.11371 Z" fill-rule="evenodd" fill="#3DCFB6" fill-opacity="1" stroke="#3DCFB6" stroke-opacity="1" stroke-width="0.2645833" stroke-linecap="round" stroke-linejoin="round"/>
<path id="path_0d0ad8e16a7449e407867d71e118ebda" d="M 14.76748 59.37592 C 14.75192 51.22959 17.00815 44.69878 21.53615 39.78354 C 26.06414 34.86829 32.13577 32.40215 39.75101 32.38516 C 47.36627 32.36814 53.44725 34.80717 57.994 39.70214 C 62.54072 44.59715 64.82188 51.11781 64.83743 59.26416 L 64.86785 75.18425 L 14.79788 75.29604 L 14.76748 59.37592 Z M 59.36227 68.39806 L 59.34486 59.27642 C 59.33337 53.25267 57.4801 48.46644 53.78507 44.91774 C 50.09002 41.36907 45.40342 39.60109 39.7252 39.61375 C 34.04678 39.62643 29.39345 41.4296 25.76521 45.02328 C 22.13696 48.61701 20.32853 53.39709 20.33992 59.36349 L 20.35734 68.48512 L 59.36227 68.39806 Z" fill-rule="evenodd" fill="#3DCFB6" fill-opacity="1" stroke="#3DCFB6" stroke-opacity="1" stroke-width="0.2645833" stroke-linecap="round" stroke-linejoin="round"/>
</defs>
<g>
<g>
<g>
<g>
<use xlink:href="#path_dd170d516095446465c8062c114bd320"/>
</g>
</g>
</g>
<g>
<g>
<g>
<use xlink:href="#path_02d1f19362d85801d589b90c254731b5"/>
</g>
</g>
</g>
<g>
<g>
<g>
<use xlink:href="#path_c2aceb5cfd39174585f1873a073cc775"/>
</g>
</g>
</g>
<g>
<g>
<g>
<use xlink:href="#path_7545929e828b2dd9831a5afc2c00df79"/>
</g>
</g>
</g>
<g>
<g>
<g>
<use xlink:href="#path_b5113f2bb3c3b0380fc02b46082f0128"/>
</g>
</g>
</g>
<g>
<g>
<g>
<use xlink:href="#path_c377ae7d38e2ccd0b514ea3d49673d73"/>
</g>
</g>
</g>
</g>
<g>
<g>
<g>
<g>
<use xlink:href="#path_3941eb86b6a27d52b7914ec13a498374"/>
</g>
</g>
</g>
<g>
<g>
<g>
<use xlink:href="#path_66919f7e548782776dfdfab29cd09aaf"/>
</g>
</g>
</g>
<g>
<g>
<g>
<use xlink:href="#path_e76e1eebdace3159b529b5346a8d9ad2"/>
</g>
</g>
</g>
<g>
<g>
<g>
<use xlink:href="#path_10cf6c480209443d7ad5fe401ddc157a"/>
</g>
</g>
</g>
<g>
<g>
<g>
<use xlink:href="#path_d88661e95d3f211982e893092ff02cc8"/>
</g>
</g>
</g>
</g>
<g>
<g>
<g>
<g>
<use xlink:href="#path_8d8367b9382ebfe2228a69f4e7ea8871"/>
</g>
</g>
</g>
</g>
<g>
<g>
<g>
<g>
<use xlink:href="#path_0d0ad8e16a7449e407867d71e118ebda"/>
</g>
</g>
</g>
</g>
</svg>