<?xml version="1.0" encoding="utf-8"?>
<!DOCTYPE svg PUBLIC "-//W3C//DTD SVG 1.1//EN" "http://www.w3.org/Graphics/SVG/1.1/DTD/svg11.dtd">
<!-- exported from Silhouette Studio® Business Edition V4.4.464ssbe -->
<svg version="1.1" xmlns="http://www.w3.org/2000/svg" xmlns:xlink="http://www.w3.org/1999/xlink" width="400mm" height="200mm" viewBox="0 0 217 105">
<defs>
<path id="path_efe6c6ddd4354a0909a835598059c406" d="M 62.02693 8.985683 C 64.70425 8.985683 66.84895 9.864544 68.46105 11.62227 C 70.07313 13.37999 70.87916 15.73388 70.87916 18.68394 C 70.87916 21.63399 70.07312 23.98787 68.46105 25.7456 C 66.84896 27.50332 64.70425 28.38219 62.02693 28.38219 L 56.79472 28.38219 L 56.79472 8.985683 L 62.02693 8.985683 Z M 59.02907 26.25442 L 62.02693 26.25442 C 64.00665 26.25442 65.58102 25.54003 66.75 24.11125 C 67.91899 22.68248 68.50349 20.86826 68.50349 18.66859 C 68.50349 16.46884 67.91428 14.66486 66.73587 13.25667 C 65.55746 11.84848 63.9878 11.14438 62.02693 11.14438 L 59.02907 11.14438 L 59.02907 26.25442 Z" fill-rule="evenodd" fill="none" fill-opacity="1" stroke="#FFFFFF" stroke-opacity="1" stroke-width="0.2645833" stroke-linecap="round" stroke-linejoin="round"/>
<path id="path_9826bceb78ec52594e033a98acd9c976" d="M 75.48595 8.985683 L 86.43111 8.985683 L 86.43109 11.08262 L 77.72028 11.08262 L 77.72028 17.58929 L 85.92207 17.58929 L 85.92207 19.65529 L 77.72028 19.65529 L 77.72028 26.25442 L 86.43109 26.25442 L 86.43109 28.38219 L 75.48595 28.38219 L 75.48595 8.985683 Z" fill-rule="evenodd" fill="none" fill-opacity="1" stroke="#FFFFFF" stroke-opacity="1" stroke-width="0.2645833" stroke-linecap="round" stroke-linejoin="round"/>
<path id="path_fbc482aa054d9d02bc2d47f49143f979" d="M 94.01102 8.985683 L 102.835 24.55838 L 102.835 8.985683 L 105.0692 8.985683 L 105.0692 28.38219 L 102.5804 28.38219 L 93.61508 12.59363 L 93.61508 28.38219 L 91.35248 28.38219 L 91.35248 8.985683 L 94.01102 8.985683 Z" fill-rule="evenodd" fill="none" fill-opacity="1" stroke="#FFFFFF" stroke-opacity="1" stroke-width="0.2645833" stroke-linecap="round" stroke-linejoin="round"/>
<path id="path_3367c31598f58033cb87e714e39d8489" d="M 113.3858 8.985683 L 122.2098 24.55838 L 122.2098 8.985683 L 124.4441 8.985683 L 124.4441 28.38219 L 121.9552 28.38219 L 112.9899 12.59363 L 112.9899 28.38219 L 110.7273 28.38219 L 110.7273 8.985683 L 113.3858 8.985683 Z" fill-rule="evenodd" fill="none" fill-opacity="1" stroke="#FFFFFF" stroke-opacity="1" stroke-width="0.2645833" stroke-linecap="round" stroke-linejoin="round"/>
<path id="path_2fe42df1864528be2ecf3b34cf1487ca" d="M 130.1587 8.985684 L 132.393 8.985684 L 132.393 28.38219 L 130.1587 28.38219 L 130.1587 8.985684 Z" fill-rule="evenodd" fill="none" fill-opacity="1" stroke="#FFFFFF" stroke-opacity="1" stroke-width="0.2645833" stroke-linecap="round" stroke-linejoin="round"/>
<path id="path_2126dce9ccbb02d78a23b8303b558819" d="M 147.5529 13.70374 C 147.2324 11.81242 145.9597 10.86677 143.7348 10.86677 C 142.547 10.86677 141.6325 11.14944 140.9915 11.71478 C 140.3504 12.28013 140.0299 12.95855 140.0299 13.75002 C 140.0299 14.5415 140.2279 15.14283 140.6238 15.554 C 141.0198 15.96516 141.6609 16.32493 142.547 16.63329 L 146.2519 18.02101 C 147.5152 18.49382 148.5192 19.14137 149.264 19.96367 C 150.0087 20.78597 150.3811 21.94236 150.3811 23.4328 C 150.3811 24.92327 149.7966 26.17732 148.6276 27.19497 C 147.4586 28.21261 145.8937 28.72145 143.9328 28.72145 C 141.9719 28.72145 140.3645 28.18178 139.1107 27.10244 C 137.8569 26.02312 137.2111 24.50697 137.1734 22.55403 L 139.3512 22.55403 C 139.3512 23.82862 139.7612 24.80513 140.5815 25.48351 C 141.4016 26.16191 142.4575 26.5011 143.749 26.5011 C 145.0405 26.5011 146.0634 26.1876 146.8176 25.56057 C 147.5718 24.93354 147.9489 24.19345 147.9489 23.34029 C 147.9489 22.48713 147.7179 21.81387 147.256 21.32052 C 146.794 20.82717 146.1106 20.41599 145.2055 20.08701 L 142.0663 18.82269 C 140.5956 18.28823 139.4832 17.65095 138.7289 16.91084 C 137.9747 16.17073 137.5976 15.08628 137.5976 13.65751 C 137.5976 12.22873 138.1256 11.03637 139.1815 10.08044 C 140.2373 9.124512 141.7174 8.646545 143.6217 8.646545 C 145.526 8.646545 146.9825 9.103963 147.9913 10.0188 C 149 10.93364 149.5798 12.16195 149.7306 13.70374 L 147.5529 13.70374 Z" fill-rule="evenodd" fill="none" fill-opacity="1" stroke="#FFFFFF" stroke-opacity="1" stroke-width="0.2645833" stroke-linecap="round" stroke-linejoin="round"/>
<path id="path_c9c4643342d1ce293dad517750b8b42a" d="M 82.13376 35.9623 C 84.8057 35.9623 86.94611 36.84918 88.55496 38.62294 C 90.1638 40.3967 90.96822 42.77207 90.96822 45.74905 C 90.96822 48.72603 90.1638 51.10139 88.55496 52.87515 C 86.94611 54.64891 84.8057 55.5358 82.13376 55.5358 L 76.91207 55.5358 L 76.91207 35.9623 L 82.13376 35.9623 Z M 79.14194 53.38864 L 82.13376 53.38864 C 84.1095 53.38864 85.68072 52.66773 86.84736 51.2259 C 88.01399 49.78409 88.59731 47.9533 88.59731 45.73357 C 88.59731 43.51373 88.00931 41.69329 86.83325 40.27226 C 85.65721 38.85121 84.09072 38.14069 82.13376 38.14069 L 79.14194 38.14069 L 79.14194 53.38864 Z" fill-rule="evenodd" fill="none" fill-opacity="1" stroke="#FFFFFF" stroke-opacity="1" stroke-width="0.2645833" stroke-linecap="round" stroke-linejoin="round"/>
<path id="path_3d4efe3ae27f5770857cfff1013577bf" d="M 97.42863 35.9623 L 97.42863 48.47189 C 97.42863 50.29753 97.84261 51.61488 98.67057 52.42396 C 99.49851 53.23302 100.5899 53.63756 101.9447 53.63756 C 103.2995 53.63756 104.3908 53.23302 105.2187 52.42396 C 106.0467 51.61488 106.4607 50.29753 106.4607 48.47189 L 106.4607 35.9623 L 108.6904 35.9623 L 108.6904 48.47189 C 108.6904 50.91986 108.0789 52.76624 106.8558 54.011 C 105.6328 55.25578 103.991 55.87816 101.9306 55.87816 C 99.87012 55.87816 98.23306 55.25578 97.01939 54.011 C 95.80574 52.76624 95.19891 50.91986 95.19891 48.47189 L 95.19891 35.9623 L 97.42863 35.9623 Z" fill-rule="evenodd" fill="none" fill-opacity="1" stroke="#FFFFFF" stroke-opacity="1" stroke-width="0.2645833" stroke-linecap="round" stroke-linejoin="round"/>
<path id="path_82c45fe2a5e30cdc952b770cbdabbb20" d="M 117.2442 35.9623 L 123.2278 49.2188 L 129.1552 35.9623 L 132.2882 35.9623 L 132.2882 55.5358 L 130.0584 55.5358 L 130.0584 39.44765 L 123.9618 53.0775 L 122.4658 53.0775 L 116.2845 39.22983 L 116.2845 55.5358 L 114.0548 55.5358 L 114.0548 35.9623 L 117.2442 35.9623 Z" fill-rule="evenodd" fill="none" fill-opacity="1" stroke="#FFFFFF" stroke-opacity="1" stroke-width="0.2645833" stroke-linecap="round" stroke-linejoin="round"/>
<path id="path_1894becd9f896253b118175dfb9ee5bc" d="M 137.9869 35.9623 L 140.2166 35.9623 L 140.2166 55.5358 L 137.9869 55.5358 L 137.9869 35.9623 Z" fill-rule="evenodd" fill="none" fill-opacity="1" stroke="#FFFFFF" stroke-opacity="1" stroke-width="0.2645833" stroke-linecap="round" stroke-linejoin="round"/>
<path id="path_7307bd220fe1c15fea6c6fc59429a2a1" d="M 148.4874 35.9623 L 157.2936 51.67712 L 157.2936 35.9623 L 159.5234 35.9623 L 159.5234 55.53581 L 157.0396 55.53581 L 148.0923 39.60316 L 148.0922 55.53581 L 145.8342 55.53581 L 145.8342 35.9623 L 148.4874 35.9623 Z" fill-rule="evenodd" fill="none" fill-opacity="1" stroke="#FFFFFF" stroke-opacity="1" stroke-width="0.2645833" stroke-linecap="round" stroke-linejoin="round"/>
<path id="path_4aaf9b470035ba92720858a59327a4af" d="M 49.56543 21.44181 C 49.59911 27.61802 47.90608 32.57654 44.48633 36.31732 C 41.06657 40.05811 36.46994 41.9469 30.69639 41.98368 C 24.92285 42.0205 20.30592 40.19044 16.84561 36.4935 C 13.3853 32.79657 11.63831 27.85999 11.60462 21.68377 L 11.53879 9.613798 L 49.49959 9.371829 L 49.56543 21.44181 Z M 15.73113 14.74158 L 15.76885 21.65722 C 15.79375 26.22417 17.21169 29.84712 20.02265 32.526 C 22.83362 35.20487 26.39158 36.53059 30.69654 36.50315 C 35.00167 36.47571 38.5248 35.09399 41.26595 32.35798 C 44.00708 29.62197 45.36533 25.99222 45.34065 21.46873 L 45.30294 14.55309 L 15.73113 14.74158 Z" fill-rule="evenodd" fill="none" fill-opacity="1" stroke="#3DCFB6" stroke-opacity="1" stroke-width="0.2645833" stroke-linecap="round" stroke-linejoin="round"/>
<path id="path_5474c1d5a1b009e19272ccc33b45b033" d="M 12.05177 44.50884 C 12.03997 38.33258 13.75056 33.38115 17.18353 29.65458 C 20.6165 25.92801 25.2198 24.05827 30.99342 24.04538 C 36.76703 24.03248 41.37743 25.88167 44.82462 29.59287 C 48.27178 33.30409 50.00128 38.24783 50.01307 44.42411 L 50.03613 56.49418 L 12.07482 56.57892 L 12.05177 44.50884 Z M 45.86199 51.34911 L 45.84879 44.4334 C 45.84007 39.86641 44.43499 36.23766 41.63355 33.54716 C 38.8321 30.85668 35.27887 29.51626 30.97385 29.52585 C 26.66867 29.53547 23.14067 30.90257 20.38986 33.62717 C 17.63905 36.35181 16.26796 39.97589 16.2766 44.49941 L 16.2898 51.41513 L 45.86199 51.34911 Z" fill-rule="evenodd" fill="none" fill-opacity="1" stroke="#3DCFB6" stroke-opacity="1" stroke-width="0.2645833" stroke-linecap="round" stroke-linejoin="round"/>
</defs>
<g>
<g>
<g>
<g>
<use xlink:href="#path_efe6c6ddd4354a0909a835598059c406"/>
</g>
</g>
</g>
<g>
<g>
<g>
<use xlink:href="#path_9826bceb78ec52594e033a98acd9c976"/>
</g>
</g>
</g>
<g>
<g>
<g>
<use xlink:href="#path_fbc482aa054d9d02bc2d47f49143f979"/>
</g>
</g>
</g>
<g>
<g>
<g>
<use xlink:href="#path_3367c31598f58033cb87e714e39d8489"/>
</g>
</g>
</g>
<g>
<g>
<g>
<use xlink:href="#path_2fe42df1864528be2ecf3b34cf1487ca"/>
</g>
</g>
</g>
<g>
<g>
<g>
<use xlink:href="#path_2126dce9ccbb02d78a23b8303b558819"/>
</g>
</g>
</g>
</g>
<g>
<g>
<g>
<g>
<use xlink:href="#path_c9c4643342d1ce293dad517750b8b42a"/>
</g>
</g>
</g>
<g>
<g>
<g>
<use xlink:href="#path_3d4efe3ae27f5770857cfff1013577bf"/>
</g>
</g>
</g>
<g>
<g>
<g>
<use xlink:href="#path_82c45fe2a5e30cdc952b770cbdabbb20"/>
</g>
</g>
</g>
<g>
<g>
<g>
<use xlink:href="#path_1894becd9f896253b118175dfb9ee5bc"/>
</g>
</g>
</g>
<g>
<g>
<g>
<use xlink:href="#path_7307bd220fe1c15fea6c6fc59429a2a1"/>
</g>
</g>
</g>
</g>
<g>
<g>
<g>
<g>
<use xlink:href="#path_4aaf9b470035ba92720858a59327a4af"/>
</g>
</g>
</g>
</g>
<g>
<g>
<g>
<g>
<use xlink:href="#path_5474c1d5a1b009e19272ccc33b45b033"/>
</g>
</g>
</g>
</g>
</svg>